<?xml version="1.0" standalone="no"?>
<!DOCTYPE svg PUBLIC "-//W3C//DTD SVG 20010904//EN"
 "http://www.w3.org/TR/2001/REC-SVG-20010904/DTD/svg10.dtd">
<svg version="1.0" xmlns="http://www.w3.org/2000/svg"
 width="269.000000pt" height="223.000000pt" viewBox="0 0 269.000000 223.000000"
 preserveAspectRatio="xMidYMid meet">
<metadata>
Created by potrace 1.16, written by Peter Selinger 2001-2019
</metadata>
<g transform="translate(0.000000,223.000000) scale(0.100000,-0.100000)"
fill="#000000" stroke="none">
<path d="M1120 2160 c0 -5 38 -43 85 -86 l86 -77 167 -2 c187 -3 268 -16 428
-70 216 -72 383 -177 572 -359 51 -49 94 -87 97 -84 9 9 -121 153 -199 221
-243 212 -601 378 -941 437 -120 20 -295 32 -295 20z"/>
<path d="M1125 1740 c-175 -20 -418 -81 -595 -150 -103 -41 -380 -179 -380
-191 0 -3 22 -18 50 -33 27 -15 50 -30 50 -34 -1 -4 -50 -40 -111 -81 -91 -60
-108 -76 -97 -86 12 -12 256 -165 262 -165 2 0 61 36 131 80 70 44 130 78 134
76 3 -1 68 -38 144 -81 l139 -78 -74 -65 c-157 -139 -459 -463 -475 -510 -3
-8 586 -357 601 -357 6 0 16 40 23 88 7 49 24 137 38 195 45 188 152 490 172
485 4 -1 109 -59 232 -129 l223 -127 41 49 c64 77 293 308 397 402 159 142
330 245 432 258 26 4 48 10 48 14 0 5 -31 32 -70 61 -38 29 -68 55 -66 56 1 2
50 -10 107 -27 57 -16 109 -30 114 -30 17 1 -125 60 -240 100 -60 21 -141 56
-180 78 -146 83 -319 146 -504 183 -112 23 -418 33 -546 19z"/>
</g>
</svg>
